# xmcd
#
# Track frame offsets:
#	150
#	13302
#	25818
#	36608
#	48195
#	60049
#	71269
#	81355
#	92321
#	104815
#	116168
#	127680
#	139848
#	150797
#
# Disc length: 2143 seconds
#
# Revision: 0
# Processed by: cddbd v1.5.2PL0 Copyright (c) Steve Scherf et al.
# Submitted via: EasyCDDAExtractor 15.3.0.1
#
DISCID=ab085d0e
DTITLE=Slim Whitman - Greatest Country Hits, Cd 2
DYEAR=2009
DGENRE=Country
TTITLE0=Something Beautiful (To Remember)
TTITLE1=The Bells That Broke My Heart
TTITLE2=Happy Street
TTITLE3=Tomorrow Never Comes
TTITLE4=Shutters Ans Boards
TTITLE5=It's A Sin to Tell a Lie
TTITLE6=Tell Me Pretty Words
TTITLE7=My Happiness
TTITLE8=One Dream
TTITLE9=What's This Worls A Comin' To
TTITLE10=Loveliest Night Of The Year
TTITLE11=I'm A Fool
TTITLE12=Irresistible
TTITLE13=It's No Sin
EXTD=
EXTT0=
EXTT1=
EXTT2=
EXTT3=
EXTT4=
EXTT5=
EXTT6=
EXTT7=
EXTT8=
EXTT9=
EXTT10=
EXTT11=
EXTT12=
EXTT13=
PLAYORDER=
